<svg width="109" height="52" viewBox="0 0 109 52" fill="none" xmlns="http://www.w3.org/2000/svg">
<path d="M31.872 4.804L20.208 27.364V38.5H12V27.364L0.336 4.804H9.648L16.176 18.916L22.656 4.804H31.872ZM47.8511 38.884C45.2271 38.884 42.8591 38.324 40.7471 37.204C38.6671 36.084 37.0191 34.484 35.8031 32.404C34.6191 30.324 34.0271 27.892 34.0271 25.108C34.0271 22.356 34.6351 19.94 35.8511 17.86C37.0671 15.748 38.7311 14.132 40.8431 13.012C42.9551 11.892 45.3231 11.332 47.9471 11.332C50.5711 11.332 52.9391 11.892 55.0511 13.012C57.1631 14.132 58.8271 15.748 60.0431 17.86C61.2591 19.94 61.8671 22.356 61.8671 25.108C61.8671 27.86 61.2431 30.292 59.9951 32.404C58.7791 34.484 57.0991 36.084 54.9551 37.204C52.8431 38.324 50.4751 38.884 47.8511 38.884ZM47.8511 31.78C49.4191 31.78 50.7471 31.204 51.8351 30.052C52.9551 28.9 53.5151 27.252 53.5151 25.108C53.5151 22.964 52.9711 21.316 51.8831 20.164C50.8271 19.012 49.5151 18.436 47.9471 18.436C46.3471 18.436 45.0191 19.012 43.9631 20.164C42.9071 21.284 42.3791 22.932 42.3791 25.108C42.3791 27.252 42.8911 28.9 43.9151 30.052C44.9711 31.204 46.2831 31.78 47.8511 31.78ZM76.8776 11.332C78.7656 11.332 80.4136 11.716 81.8216 12.484C83.2616 13.252 84.3656 14.26 85.1336 15.508V11.716H93.3416V38.452C93.3416 40.916 92.8456 43.14 91.8536 45.124C90.8936 47.14 89.4056 48.74 87.3896 49.924C85.4056 51.108 82.9256 51.7 79.9496 51.7C75.9816 51.7 72.7656 50.756 70.3016 48.868C67.8376 47.012 66.4296 44.484 66.0776 41.284H74.1896C74.4456 42.308 75.0536 43.108 76.0136 43.684C76.9736 44.292 78.1576 44.596 79.5656 44.596C81.2616 44.596 82.6056 44.1 83.5976 43.108C84.6216 42.148 85.1336 40.596 85.1336 38.452V34.66C84.3336 35.908 83.2296 36.932 81.8216 37.732C80.4136 38.5 78.7656 38.884 76.8776 38.884C74.6696 38.884 72.6696 38.324 70.8776 37.204C69.0856 36.052 67.6616 34.436 66.6056 32.356C65.5816 30.244 65.0696 27.812 65.0696 25.06C65.0696 22.308 65.5816 19.892 66.6056 17.812C67.6616 15.732 69.0856 14.132 70.8776 13.012C72.6696 11.892 74.6696 11.332 76.8776 11.332ZM85.1336 25.108C85.1336 23.06 84.5576 21.444 83.4056 20.26C82.2856 19.076 80.9096 18.484 79.2776 18.484C77.6456 18.484 76.2536 19.076 75.1016 20.26C73.9816 21.412 73.4216 23.012 73.4216 25.06C73.4216 27.108 73.9816 28.74 75.1016 29.956C76.2536 31.14 77.6456 31.732 79.2776 31.732C80.9096 31.732 82.2856 31.14 83.4056 29.956C84.5576 28.772 85.1336 27.156 85.1336 25.108ZM103.888 8.932C102.448 8.932 101.264 8.516 100.336 7.684C99.4398 6.82 98.9918 5.764 98.9918 4.516C98.9918 3.236 99.4398 2.18 100.336 1.348C101.264 0.483997 102.448 0.0519972 103.888 0.0519972C105.296 0.0519972 106.448 0.483997 107.344 1.348C108.272 2.18 108.736 3.236 108.736 4.516C108.736 5.764 108.272 6.82 107.344 7.684C106.448 8.516 105.296 8.932 103.888 8.932ZM107.968 11.716V38.5H99.7598V11.716H107.968Z" fill="#FF7058"/>
</svg>
