<svg width="24" height="25" viewBox="0 0 24 25" fill="none" xmlns="http://www.w3.org/2000/svg">
<g clip-path="url(#clip0_1214_318)">
<path d="M12 0.5C8.74097 0.5 8.33231 0.513828 7.05239 0.572234C5.77514 0.6305 4.9028 0.833328 4.13948 1.13C3.35039 1.43666 2.68116 1.847 2.01408 2.51412C1.34695 3.1812 0.936609 3.85044 0.629953 4.63953C0.333281 5.4028 0.130453 6.27514 0.0721875 7.55239C0.0137812 8.83231 0 9.24097 0 12.5C0 15.7589 0.0137812 16.1676 0.0721875 17.4475C0.130453 18.7248 0.333281 19.5971 0.629953 20.3604C0.936609 21.1495 1.34695 21.8187 2.01408 22.4859C2.68116 23.153 3.35039 23.5633 4.13948 23.87C4.9028 24.1666 5.77514 24.3695 7.05239 24.4277C8.33231 24.4861 8.74097 24.4999 12 24.4999C15.2589 24.4999 15.6676 24.4861 16.9475 24.4277C18.2248 24.3695 19.0971 24.1666 19.8604 23.87C20.6495 23.5633 21.3187 23.153 21.9859 22.4859C22.653 21.8187 23.0633 21.1495 23.37 20.3604C23.6666 19.5971 23.8695 18.7248 23.9277 17.4475C23.9861 16.1676 23.9999 15.7589 23.9999 12.5C23.9999 9.24097 23.9861 8.83231 23.9277 7.55239C23.8695 6.27514 23.6666 5.4028 23.37 4.63953C23.0633 3.85044 22.653 3.1812 21.9859 2.51412C21.3187 1.847 20.6495 1.43666 19.8604 1.13C19.0971 0.833328 18.2248 0.6305 16.9475 0.572234C15.6676 0.513828 15.2589 0.5 12 0.5V0.5ZM12 2.6622C15.2041 2.6622 15.5836 2.67439 16.849 2.73214C18.0189 2.78553 18.6543 2.981 19.0772 3.1453C19.6373 3.36298 20.037 3.62305 20.457 4.04295C20.8769 4.46286 21.1369 4.86266 21.3546 5.42272C21.519 5.84558 21.7144 6.48097 21.7678 7.65092C21.8255 8.91631 21.8377 9.29586 21.8377 12.5C21.8377 15.7041 21.8255 16.0836 21.7678 17.349C21.7144 18.5189 21.519 19.1543 21.3546 19.5772C21.1369 20.1373 20.8769 20.537 20.457 20.957C20.037 21.3769 19.6373 21.6369 19.0772 21.8546C18.6543 22.019 18.0189 22.2144 16.849 22.2678C15.5838 22.3255 15.2043 22.3377 12 22.3377C8.79558 22.3377 8.41617 22.3255 7.15092 22.2678C5.98097 22.2144 5.34558 22.019 4.92272 21.8546C4.36261 21.6369 3.96286 21.3769 3.54291 20.957C3.123 20.537 2.86294 20.1373 2.6453 19.5772C2.48095 19.1543 2.28548 18.5189 2.23209 17.349C2.17434 16.0836 2.16216 15.7041 2.16216 12.5C2.16216 9.29586 2.17434 8.91631 2.23209 7.65092C2.28548 6.48097 2.48095 5.84558 2.6453 5.42272C2.86294 4.86266 3.123 4.46286 3.54291 4.04295C3.96286 3.62305 4.36261 3.36298 4.92272 3.1453C5.34558 2.981 5.98097 2.78553 7.15092 2.73214C8.41631 2.67439 8.79586 2.6622 12 2.6622Z" fill="#120D26"/>
<path d="M12.0011 16.4981C9.79188 16.4981 8.00102 14.7072 8.00102 12.4981C8.00102 10.289 9.79188 8.49809 12.0011 8.49809C14.2101 8.49809 16.001 10.289 16.001 12.4981C16.001 14.7072 14.2101 16.4981 12.0011 16.4981ZM12.0011 6.33594C8.59774 6.33594 5.83887 9.09481 5.83887 12.4981C5.83887 15.9013 8.59774 18.6602 12.0011 18.6602C15.4043 18.6602 18.1631 15.9013 18.1631 12.4981C18.1631 9.09481 15.4043 6.33594 12.0011 6.33594Z" fill="#120D26"/>
<path d="M19.8458 6.09987C19.8458 6.89519 19.2011 7.53987 18.4058 7.53987C17.6105 7.53987 16.9658 6.89519 16.9658 6.09987C16.9658 5.30458 17.6105 4.65991 18.4058 4.65991C19.2011 4.65991 19.8458 5.30458 19.8458 6.09987Z" fill="#120D26"/>
</g>
<defs>
<clipPath id="clip0_1214_318">
<rect width="24" height="24" fill="white" transform="translate(0 0.5)"/>
</clipPath>
</defs>
</svg>
