<svg width="24" height="25" viewBox="0 0 24 25" fill="none" xmlns="http://www.w3.org/2000/svg">
<path d="M7.54753 22.2512C16.6042 22.2512 21.5578 14.7479 21.5578 8.24098C21.5578 8.02789 21.5578 7.81573 21.5434 7.60452C22.507 6.90744 23.3389 6.04442 24 5.05573C23.1014 5.45394 22.148 5.71503 21.1718 5.83044C22.1995 5.21525 22.9692 4.24691 23.3366 3.10691C22.3701 3.68042 21.3126 4.08467 20.2099 4.30213C19.2789 3.31208 17.9786 2.75 16.6196 2.75C13.9158 2.75 11.691 4.97487 11.691 7.67863C11.691 8.05372 11.7338 8.42764 11.8185 8.79299C7.86145 8.59466 4.16948 6.72294 1.67039 3.64836C0.370828 5.88552 1.04325 8.78474 3.19486 10.2215C2.41134 10.1983 1.64466 9.98684 0.96 9.60514V9.66753C0.960656 12.0026 2.62158 14.0321 4.91039 14.4944C4.18552 14.6921 3.42478 14.721 2.68706 14.5789C3.33052 16.5798 5.18602 17.959 7.28738 17.9984C5.54409 19.3685 3.38939 20.1126 1.17216 20.1104C0.780375 20.1097 0.388969 20.086 0 20.0394C2.25159 21.4843 4.87219 22.2509 7.54753 22.2474" fill="#120D26"/>
</svg>
