<svg width="24" height="25" viewBox="0 0 24 25" fill="none" xmlns="http://www.w3.org/2000/svg">
<g clip-path="url(#clip0_1214_323)">
<path d="M23.4984 6.72102C23.2224 5.68836 22.4093 4.87522 21.3766 4.59927C19.5048 4.09766 11.9999 4.09766 11.9999 4.09766C11.9999 4.09766 4.49498 4.09766 2.62313 4.59927C1.5907 4.87522 0.777375 5.68836 0.501375 6.72102C0 8.59264 0 12.4977 0 12.4977C0 12.4977 0 16.4028 0.501375 18.2742C0.777375 19.3069 1.5907 20.1202 2.62313 20.3961C4.49498 20.8976 11.9999 20.8976 11.9999 20.8976C11.9999 20.8976 19.5048 20.8976 21.3766 20.3961C22.4093 20.1202 23.2224 19.3069 23.4984 18.2742C24 16.4028 24 12.4977 24 12.4977C24 12.4977 24 8.59264 23.4984 6.72102Z" fill="#120D26"/>
<path d="M9.60059 16.1022L15.8358 12.5021L9.60059 8.9021V16.1022Z" fill="white"/>
</g>
<defs>
<clipPath id="clip0_1214_323">
<rect width="24" height="24" fill="white" transform="translate(0 0.5)"/>
</clipPath>
</defs>
</svg>
