<svg width="510" height="713" viewBox="0 0 510 713" fill="none" xmlns="http://www.w3.org/2000/svg">
<path fill-rule="evenodd" clip-rule="evenodd" d="M633.302 270.074C650.852 343.764 601.881 416.505 558.977 478.934C524.232 529.49 465.747 551.649 415.553 586.916C364.527 622.767 323.357 671.632 262.907 686.956C187.57 706.054 92.5977 735.972 35.4824 683.263C-22.5285 629.727 16.323 532.334 10.0901 453.641C5.43768 394.904 -4.82093 339.634 3.64632 281.324C14.2052 208.61 13.2155 127.326 65.0386 75.2379C120.23 19.7643 204.032 -6.07186 281.902 1.64338C357.396 9.12311 412.159 69.5505 472.445 115.603C533.002 161.861 615.647 195.944 633.302 270.074Z" fill="#FF7058" fill-opacity="0.05"/>
</svg>
