<svg width="116" height="117" viewBox="0 0 116 117" fill="none" xmlns="http://www.w3.org/2000/svg">
<circle cx="3.74424" cy="3.74424" r="3.74424" fill="#FF7058"/>
<circle cx="3.74424" cy="25.4609" r="3.74424" fill="#FF7058"/>
<circle cx="3.74424" cy="47.1773" r="3.74424" fill="#FF7058"/>
<circle cx="3.74424" cy="68.8941" r="3.74424" fill="#FF7058"/>
<circle cx="3.74424" cy="90.6105" r="3.74424" fill="#FF7058"/>
<circle cx="3.74424" cy="112.327" r="3.74424" fill="#FF7058"/>
<circle cx="30.7027" cy="3.74424" r="3.74424" fill="#FF7058"/>
<circle cx="30.7027" cy="25.4609" r="3.74424" fill="#FF7058"/>
<circle cx="30.7027" cy="47.1773" r="3.74424" fill="#FF7058"/>
<circle cx="30.7027" cy="68.8941" r="3.74424" fill="#FF7058"/>
<circle cx="30.7027" cy="90.6105" r="3.74424" fill="#FF7058"/>
<circle cx="30.7027" cy="112.327" r="3.74424" fill="#FF7058"/>
<circle cx="57.6612" cy="3.74424" r="3.74424" fill="#FF7058"/>
<circle cx="57.6612" cy="25.4609" r="3.74424" fill="#FF7058"/>
<circle cx="57.6612" cy="47.1773" r="3.74424" fill="#FF7058"/>
<circle cx="57.6612" cy="68.8941" r="3.74424" fill="#FF7058"/>
<circle cx="57.6612" cy="90.6105" r="3.74424" fill="#FF7058"/>
<circle cx="57.6612" cy="112.327" r="3.74424" fill="#FF7058"/>
<circle cx="84.6197" cy="3.74424" r="3.74424" fill="#FF7058"/>
<circle cx="84.6197" cy="25.4609" r="3.74424" fill="#FF7058"/>
<circle cx="84.6197" cy="47.1773" r="3.74424" fill="#FF7058"/>
<circle cx="84.6197" cy="68.8941" r="3.74424" fill="#FF7058"/>
<circle cx="84.6197" cy="90.6105" r="3.74424" fill="#FF7058"/>
<circle cx="84.6197" cy="112.327" r="3.74424" fill="#FF7058"/>
<circle cx="111.578" cy="3.74424" r="3.74424" fill="#FF7058"/>
<circle cx="111.578" cy="25.4609" r="3.74424" fill="#FF7058"/>
<circle cx="111.578" cy="47.1773" r="3.74424" fill="#FF7058"/>
<circle cx="111.578" cy="68.8941" r="3.74424" fill="#FF7058"/>
<circle cx="111.578" cy="90.6105" r="3.74424" fill="#FF7058"/>
<circle cx="111.578" cy="112.327" r="3.74424" fill="#FF7058"/>
</svg>
