<svg width="251" height="367" viewBox="0 0 251 367" fill="none" xmlns="http://www.w3.org/2000/svg">
<path fill-rule="evenodd" clip-rule="evenodd" d="M74.8816 362.714C26.368 377.089 -21.9465 351.911 -63.4171 329.783C-97.0008 311.863 -111.998 278.322 -135.592 250.409C-159.577 222.032 -192.086 200.206 -202.585 165.131C-215.67 121.419 -236.022 66.6278 -201.606 29.8838C-166.651 -7.43632 -102.134 10.4094 -50.2463 2.48633C-11.5166 -3.42754 24.8895 -12.4845 63.4211 -10.5848C111.471 -8.21574 165.102 -13.1643 199.807 14.8148C236.767 44.6122 254.353 92.9894 249.761 139.645C245.309 184.876 205.785 220.636 175.783 258.906C145.646 297.348 123.686 348.253 74.8816 362.714Z" fill="#FF7058" fill-opacity="0.05"/>
</svg>
